<svg width="64" height="64" viewBox="0 0 64 64" fill="none" xmlns="http://www.w3.org/2000/svg">
<circle cx="32" cy="32" r="32" fill="#474FFF"/>
<g clip-path="url(#clip0_282_2063)">
<path fill-rule="evenodd" clip-rule="evenodd" d="M21.4775 18C34.2722 18 32.938 39.5819 19.3203 45.0007C19.1193 44.9663 18.9304 44.8819 18.7714 44.7552C18.6124 44.6286 18.4885 44.4639 18.4114 44.2767C18.3343 44.0895 18.3066 43.886 18.3308 43.6852C18.355 43.4845 18.4304 43.2931 18.5498 43.1292C22.7617 39.721 24.7086 36.5045 24.3903 33.4798C23.4536 33.801 22.4693 33.9644 21.4781 33.9632C16.7965 33.9632 13.001 30.3902 13.001 25.9816C13.001 21.573 16.7965 18.0006 21.4781 18.0006" fill="white"/>
<path fill-rule="evenodd" clip-rule="evenodd" d="M42.1304 18C54.9261 18 53.5909 39.5819 39.9738 45.0007C39.7728 44.9663 39.5839 44.8819 39.4249 44.7552C39.2659 44.6286 39.142 44.4639 39.0649 44.2767C38.9878 44.0895 38.9601 43.886 38.9843 43.6853C39.0084 43.4845 39.0838 43.2932 39.2031 43.1292C43.4154 39.721 45.3623 36.5045 45.044 33.4798C44.1068 33.8009 43.122 33.9641 42.1304 33.9626C37.4489 33.9626 33.6533 30.3897 33.6533 25.9811C33.6533 21.5725 37.4489 18 42.1304 18Z" fill="white"/>
</g>
<defs>
<clipPath id="clip0_282_2063">
<rect width="38" height="27" fill="white" transform="translate(13 18)"/>
</clipPath>
</defs>
</svg>
