<?xml version="1.0" encoding="UTF-8"?>
<svg xmlns="http://www.w3.org/2000/svg" width="63" height="63" viewBox="0 0 63 63" fill="none">
  <path d="M51.5 21.1667H44.7097C46.2114 19.7975 47.4014 18.1217 48.1991 16.2526C48.9968 14.3835 49.3836 12.3649 49.3333 10.3333H45C45 16.5755 40.7295 19.6652 36.004 20.7333C37.4229 18.2022 38.2746 15.3929 38.5 12.5C38.5 10.7761 37.8152 9.12279 36.5962 7.90381C35.3772 6.68482 33.7239 6 32 6C30.2761 6 28.6228 6.68482 27.4038 7.90381C26.1848 9.12279 25.5 10.7761 25.5 12.5C25.7254 15.3929 26.5771 18.2022 27.996 20.7333C23.2705 19.6652 19 16.5755 19 10.3333H14.6667C14.6164 12.3649 15.0032 14.3835 15.8009 16.2526C16.5986 18.1217 17.7886 19.7975 19.2903 21.1667H12.5C10.7761 21.1667 9.12279 21.8515 7.90381 23.0705C6.68482 24.2895 6 25.9428 6 27.6667L6 36.3333H10.3333V58H53.6667V36.3333H58V27.6667C58 25.9428 57.3152 24.2895 56.0962 23.0705C54.8772 21.8515 53.2239 21.1667 51.5 21.1667ZM32 10.3333C32.5746 10.3333 33.1257 10.5616 33.5321 10.9679C33.9384 11.3743 34.1667 11.9254 34.1667 12.5C33.9051 14.8028 33.1673 17.026 32 19.0282C30.8327 17.026 30.0949 14.8028 29.8333 12.5C29.8333 11.9254 30.0616 11.3743 30.4679 10.9679C30.8743 10.5616 31.4254 10.3333 32 10.3333ZM10.3333 27.6667C10.3333 27.092 10.5616 26.5409 10.9679 26.1346C11.3743 25.7283 11.9254 25.5 12.5 25.5H29.8333V32H10.3333V27.6667ZM14.6667 36.3333H29.8333V53.6667H14.6667V36.3333ZM49.3333 53.6667H34.1667V36.3333H49.3333V53.6667ZM53.6667 32H34.1667V25.5H51.5C52.0746 25.5 52.6257 25.7283 53.0321 26.1346C53.4384 26.5409 53.6667 27.092 53.6667 27.6667V32Z" fill="url(#paint0_linear_282_2079)"></path>
  <defs>
    <linearGradient id="paint0_linear_282_2079" x1="58" y1="32" x2="6" y2="32" gradientUnits="userSpaceOnUse">
      <stop stop-color="#2229CF"></stop>
      <stop offset="1" stop-color="#474FFF"></stop>
    </linearGradient>
  </defs>
</svg>
