<?xml version="1.0" encoding="UTF-8"?>
<svg xmlns="http://www.w3.org/2000/svg" width="63" height="64" viewBox="0 0 63 64" fill="none">
  <path fill-rule="evenodd" clip-rule="evenodd" d="M48.9861 29.0967H42.8717C44.4946 30.1355 45.8848 31.523 46.9323 33.1751C48.6411 35.8704 49.3239 39.0905 48.8566 42.2475C48.3892 45.4044 46.8028 48.2886 44.3859 50.3726C42.4609 52.0326 40.1115 53.0966 37.6224 53.4585V57.0967H24.3776V53.4548C21.5653 53.0406 18.9412 51.7319 16.9082 49.6969C14.4185 47.2048 13.0185 43.8269 13.0139 40.3042L13.0139 40.2989L13.0139 35.0967H19.1284C17.5054 34.0579 16.1152 32.6704 15.0677 31.0182C13.359 28.323 12.6762 25.1028 13.1435 21.9459C13.6108 18.7889 15.1972 15.9048 17.6141 13.8207C19.5391 12.1608 21.8885 11.0968 24.3776 10.7349V7.09668H37.6224V10.7385C40.4347 11.1527 43.0588 12.4615 45.0918 14.4965C47.5815 16.9886 48.9815 20.3665 48.9861 23.8892L48.9861 23.8944L48.9861 29.0967ZM35.6976 14.5967H33.6224V11.0967H28.3776V14.5967H26.3024C26.2932 14.5967 26.2839 14.5967 26.2747 14.5967C24.0546 14.6 21.9087 15.3992 20.2262 16.85C18.5367 18.3069 17.4272 20.3236 17.1003 22.5316C16.7735 24.7397 17.2511 26.9917 18.446 28.8764C19.6409 30.7611 21.4732 32.1526 23.6083 32.7967L28.3776 34.1022V44.3467H26.3024C25.624 44.3458 24.9634 44.1745 24.3776 43.8566C24.0377 43.6721 23.723 43.4382 23.4446 43.1596C22.6865 42.4008 22.2601 41.372 22.2587 40.2989V39.0967H17.0139V40.2989C17.0151 41.257 17.1639 42.1998 17.4476 43.0967C17.8938 44.5072 18.6736 45.8044 19.738 46.8699C21.4792 48.6128 23.8399 49.5934 26.3024 49.5967H28.3776V53.0967H33.6224V49.5967H35.6976C35.7068 49.5967 35.7161 49.5967 35.7253 49.5967C37.9454 49.5934 40.0913 48.7941 41.7738 47.3433C43.4633 45.8865 44.5728 43.8698 44.8997 41.6617C45.2265 39.4537 44.7489 37.2016 43.554 35.3169C42.3591 33.4323 40.5268 32.0408 38.3917 31.3967L33.6224 30.0947V19.8467H35.6976C36.376 19.8476 37.0366 20.0188 37.6224 20.3368C37.9623 20.5213 38.2771 20.7551 38.5554 21.0338C39.3135 21.7926 39.74 22.8213 39.7413 23.8944V25.0967H44.9861V23.8944C44.9849 22.9363 44.8361 21.9936 44.5524 21.0967C44.1063 19.6862 43.3264 18.389 42.262 17.3235C40.5208 15.5805 38.1601 14.5999 35.6976 14.5967ZM35.6889 44.3467C35.6941 44.3467 35.6994 44.3467 35.7046 44.3467C36.3787 44.3454 37.0371 44.1756 37.6224 43.8585C37.8718 43.7234 38.108 43.5615 38.3264 43.3744C39.0612 42.7452 39.5466 41.8734 39.6946 40.9168C39.8425 39.9602 39.6433 38.9823 39.133 38.1601C38.7594 37.5582 38.2372 37.069 37.6224 36.7359C37.3973 36.6139 37.1598 36.5129 36.9126 36.4349L33.6224 35.5354V44.3467H35.6889ZM28.3776 28.6579V19.8467H26.3024C25.6258 19.8468 24.9648 20.0167 24.3776 20.3349C24.1263 20.4711 23.8884 20.6344 23.6687 20.8232C22.9354 21.4531 22.4516 22.3249 22.3048 23.2809C22.158 24.2369 22.3579 25.2139 22.8682 26.0352C23.2417 26.6362 23.7635 27.1247 24.3776 27.4575C24.6027 27.5794 24.8402 27.6805 25.0874 27.7584L28.3776 28.6579Z" fill="url(#paint0_linear_282_2090)"></path>
  <defs>
    <linearGradient id="paint0_linear_282_2090" x1="45" y1="32.0967" x2="17" y2="32.0967" gradientUnits="userSpaceOnUse">
      <stop stop-color="#2229CF"></stop>
      <stop offset="1" stop-color="#474FFF"></stop>
    </linearGradient>
  </defs>
</svg>
